<svg xmlns="http://www.w3.org/2000/svg" fill="none" viewBox="0 0 200 200">
  <path fill="#ffb13c"
    d="M43.8,-31.8C60,-14.6,78.7,3.8,78.5,23.2C78.2,42.5,59.1,62.7,37.9,69.3C16.7,75.9,-6.5,68.8,-22.5,57.1C-38.6,45.4,-47.5,29.1,-48,14.5C-48.5,-0.2,-40.7,-13.2,-31.4,-28.9C-22,-44.6,-11,-62.8,1.4,-63.9C13.8,-65.1,27.5,-49,43.8,-31.8Z"
    transform="translate(100 110) scale(1.15)" />
  <path fill="#d00000"
    d="M60.5,-51.6C69.2,-37.4,60.7,-12.7,53,8.6C45.4,29.8,38.5,47.7,23.9,58C9.3,68.2,-13,70.8,-31.2,62.8C-49.4,54.8,-63.4,36.2,-69.3,14.6C-75.3,-7,-73,-31.7,-60.1,-47C-47.2,-62.2,-23.6,-67.9,1.2,-68.8C25.9,-69.8,51.8,-65.9,60.5,-51.6Z"
    transform="translate(95 95)" />
</svg>
